<mxfile host="app.diagrams.net" agent="Mozilla/5.0 (Windows NT 10.0; Win64; x64) AppleWebKit/537.36 (KHTML, like Gecko) Chrome/130.0.0.0 Safari/537.36" version="24.8.2">
  <diagram name="Page-1" id="e56a1550-8fbb-45ad-956c-1786394a9013">
    <mxGraphModel dx="2524" dy="1198" grid="1" gridSize="10" guides="1" tooltips="1" connect="1" arrows="1" fold="1" page="1" pageScale="1" pageWidth="3300" pageHeight="2339" background="none" math="0" shadow="0">
      <root>
        <mxCell id="0" />
        <mxCell id="1" parent="0" />
        <mxCell id="HPCLGDxQR15PkIXR5d-X-1" value="Заказ&amp;nbsp;" style="swimlane;html=1;fontStyle=0;childLayout=stackLayout;horizontal=1;startSize=26;fillColor=#e0e0e0;horizontalStack=0;resizeParent=1;resizeLast=0;collapsible=1;marginBottom=0;swimlaneFillColor=#ffffff;align=center;rounded=1;shadow=0;comic=0;labelBackgroundColor=none;strokeWidth=1;fontFamily=Verdana;fontSize=14" vertex="1" parent="1">
          <mxGeometry x="100" y="680" width="180" height="110" as="geometry" />
        </mxCell>
        <mxCell id="HPCLGDxQR15PkIXR5d-X-166" value="ID строки *" style="shape=partialRectangle;top=0;left=0;right=0;bottom=0;html=1;align=left;verticalAlign=top;fillColor=none;spacingLeft=34;spacingRight=4;whiteSpace=wrap;overflow=hidden;rotatable=0;points=[[0,0.5],[1,0.5]];portConstraint=eastwest;dropTarget=0;" vertex="1" parent="HPCLGDxQR15PkIXR5d-X-1">
          <mxGeometry y="26" width="180" height="24" as="geometry" />
        </mxCell>
        <mxCell id="HPCLGDxQR15PkIXR5d-X-167" value="" style="shape=partialRectangle;top=0;left=0;bottom=0;html=1;fillColor=none;align=left;verticalAlign=top;spacingLeft=4;spacingRight=4;whiteSpace=wrap;overflow=hidden;rotatable=0;points=[];portConstraint=eastwest;part=1;" vertex="1" connectable="0" parent="HPCLGDxQR15PkIXR5d-X-166">
          <mxGeometry width="30" height="24" as="geometry" />
        </mxCell>
        <mxCell id="HPCLGDxQR15PkIXR5d-X-4" value="Заказ (id) **" style="shape=partialRectangle;top=0;left=0;right=0;bottom=0;html=1;align=left;verticalAlign=top;fillColor=none;spacingLeft=34;spacingRight=4;whiteSpace=wrap;overflow=hidden;rotatable=0;points=[[0,0.5],[1,0.5]];portConstraint=eastwest;dropTarget=0;" vertex="1" parent="HPCLGDxQR15PkIXR5d-X-1">
          <mxGeometry y="50" width="180" height="24" as="geometry" />
        </mxCell>
        <mxCell id="HPCLGDxQR15PkIXR5d-X-5" value="" style="shape=partialRectangle;top=0;left=0;bottom=0;html=1;fillColor=none;align=left;verticalAlign=top;spacingLeft=4;spacingRight=4;whiteSpace=wrap;overflow=hidden;rotatable=0;points=[];portConstraint=eastwest;part=1;" vertex="1" connectable="0" parent="HPCLGDxQR15PkIXR5d-X-4">
          <mxGeometry width="30" height="24" as="geometry" />
        </mxCell>
        <mxCell id="HPCLGDxQR15PkIXR5d-X-170" value="Заказанный товар_id **" style="shape=partialRectangle;top=0;left=0;right=0;bottom=0;html=1;align=left;verticalAlign=top;fillColor=none;spacingLeft=34;spacingRight=4;whiteSpace=wrap;overflow=hidden;rotatable=0;points=[[0,0.5],[1,0.5]];portConstraint=eastwest;dropTarget=0;" vertex="1" parent="HPCLGDxQR15PkIXR5d-X-1">
          <mxGeometry y="74" width="180" height="36" as="geometry" />
        </mxCell>
        <mxCell id="HPCLGDxQR15PkIXR5d-X-171" value="" style="shape=partialRectangle;top=0;left=0;bottom=0;html=1;fillColor=none;align=left;verticalAlign=top;spacingLeft=4;spacingRight=4;whiteSpace=wrap;overflow=hidden;rotatable=0;points=[];portConstraint=eastwest;part=1;" vertex="1" connectable="0" parent="HPCLGDxQR15PkIXR5d-X-170">
          <mxGeometry width="30" height="36" as="geometry" />
        </mxCell>
        <mxCell id="HPCLGDxQR15PkIXR5d-X-13" value="Товары" style="swimlane;html=1;fontStyle=0;childLayout=stackLayout;horizontal=1;startSize=26;fillColor=#e0e0e0;horizontalStack=0;resizeParent=1;resizeLast=0;collapsible=1;marginBottom=0;swimlaneFillColor=#ffffff;align=center;rounded=1;shadow=0;comic=0;labelBackgroundColor=none;strokeWidth=1;fontFamily=Verdana;fontSize=14" vertex="1" parent="1">
          <mxGeometry x="430" y="860" width="160" height="80" as="geometry" />
        </mxCell>
        <mxCell id="HPCLGDxQR15PkIXR5d-X-14" value="Товар_id *" style="shape=partialRectangle;top=0;left=0;right=0;bottom=0;html=1;align=left;verticalAlign=top;fillColor=none;spacingLeft=34;spacingRight=4;whiteSpace=wrap;overflow=hidden;rotatable=0;points=[[0,0.5],[1,0.5]];portConstraint=eastwest;dropTarget=0;" vertex="1" parent="HPCLGDxQR15PkIXR5d-X-13">
          <mxGeometry y="26" width="160" height="24" as="geometry" />
        </mxCell>
        <mxCell id="HPCLGDxQR15PkIXR5d-X-15" value="" style="shape=partialRectangle;top=0;left=0;bottom=0;html=1;fillColor=none;align=left;verticalAlign=top;spacingLeft=4;spacingRight=4;whiteSpace=wrap;overflow=hidden;rotatable=0;points=[];portConstraint=eastwest;part=1;" vertex="1" connectable="0" parent="HPCLGDxQR15PkIXR5d-X-14">
          <mxGeometry width="30" height="24" as="geometry" />
        </mxCell>
        <mxCell id="HPCLGDxQR15PkIXR5d-X-16" value="Поставщик" style="shape=partialRectangle;top=0;left=0;right=0;bottom=0;html=1;align=left;verticalAlign=top;fillColor=none;spacingLeft=34;spacingRight=4;whiteSpace=wrap;overflow=hidden;rotatable=0;points=[[0,0.5],[1,0.5]];portConstraint=eastwest;dropTarget=0;" vertex="1" parent="HPCLGDxQR15PkIXR5d-X-13">
          <mxGeometry y="50" width="160" height="30" as="geometry" />
        </mxCell>
        <mxCell id="HPCLGDxQR15PkIXR5d-X-17" value="" style="shape=partialRectangle;top=0;left=0;bottom=0;html=1;fillColor=none;align=left;verticalAlign=top;spacingLeft=4;spacingRight=4;whiteSpace=wrap;overflow=hidden;rotatable=0;points=[];portConstraint=eastwest;part=1;" vertex="1" connectable="0" parent="HPCLGDxQR15PkIXR5d-X-16">
          <mxGeometry width="30" height="29.999999999999996" as="geometry" />
        </mxCell>
        <mxCell id="HPCLGDxQR15PkIXR5d-X-22" value="Оплата и сборка" style="swimlane;html=1;fontStyle=0;childLayout=stackLayout;horizontal=1;startSize=26;fillColor=#e0e0e0;horizontalStack=0;resizeParent=1;resizeLast=0;collapsible=1;marginBottom=0;swimlaneFillColor=#ffffff;align=center;rounded=1;shadow=0;comic=0;labelBackgroundColor=none;strokeWidth=1;fontFamily=Verdana;fontSize=14" vertex="1" parent="1">
          <mxGeometry x="421" y="680" width="160" height="130" as="geometry" />
        </mxCell>
        <mxCell id="HPCLGDxQR15PkIXR5d-X-23" value="Заказ (id) *" style="shape=partialRectangle;top=0;left=0;right=0;bottom=0;html=1;align=left;verticalAlign=top;fillColor=none;spacingLeft=34;spacingRight=4;whiteSpace=wrap;overflow=hidden;rotatable=0;points=[[0,0.5],[1,0.5]];portConstraint=eastwest;dropTarget=0;" vertex="1" parent="HPCLGDxQR15PkIXR5d-X-22">
          <mxGeometry y="26" width="160" height="24" as="geometry" />
        </mxCell>
        <mxCell id="HPCLGDxQR15PkIXR5d-X-24" value="" style="shape=partialRectangle;top=0;left=0;bottom=0;html=1;fillColor=none;align=left;verticalAlign=top;spacingLeft=4;spacingRight=4;whiteSpace=wrap;overflow=hidden;rotatable=0;points=[];portConstraint=eastwest;part=1;" vertex="1" connectable="0" parent="HPCLGDxQR15PkIXR5d-X-23">
          <mxGeometry width="30" height="24" as="geometry" />
        </mxCell>
        <mxCell id="HPCLGDxQR15PkIXR5d-X-25" value="Клиент **" style="shape=partialRectangle;top=0;left=0;right=0;bottom=0;html=1;align=left;verticalAlign=top;fillColor=none;spacingLeft=34;spacingRight=4;whiteSpace=wrap;overflow=hidden;rotatable=0;points=[[0,0.5],[1,0.5]];portConstraint=eastwest;dropTarget=0;" vertex="1" parent="HPCLGDxQR15PkIXR5d-X-22">
          <mxGeometry y="50" width="160" height="26" as="geometry" />
        </mxCell>
        <mxCell id="HPCLGDxQR15PkIXR5d-X-26" value="" style="shape=partialRectangle;top=0;left=0;bottom=0;html=1;fillColor=none;align=left;verticalAlign=top;spacingLeft=4;spacingRight=4;whiteSpace=wrap;overflow=hidden;rotatable=0;points=[];portConstraint=eastwest;part=1;" vertex="1" connectable="0" parent="HPCLGDxQR15PkIXR5d-X-25">
          <mxGeometry width="30" height="26" as="geometry" />
        </mxCell>
        <mxCell id="HPCLGDxQR15PkIXR5d-X-27" value="Платеж&amp;nbsp;" style="shape=partialRectangle;top=0;left=0;right=0;bottom=0;html=1;align=left;verticalAlign=top;fillColor=none;spacingLeft=34;spacingRight=4;whiteSpace=wrap;overflow=hidden;rotatable=0;points=[[0,0.5],[1,0.5]];portConstraint=eastwest;dropTarget=0;" vertex="1" parent="HPCLGDxQR15PkIXR5d-X-22">
          <mxGeometry y="76" width="160" height="24" as="geometry" />
        </mxCell>
        <mxCell id="HPCLGDxQR15PkIXR5d-X-28" value="" style="shape=partialRectangle;top=0;left=0;bottom=0;html=1;fillColor=none;align=left;verticalAlign=top;spacingLeft=4;spacingRight=4;whiteSpace=wrap;overflow=hidden;rotatable=0;points=[];portConstraint=eastwest;part=1;" vertex="1" connectable="0" parent="HPCLGDxQR15PkIXR5d-X-27">
          <mxGeometry width="30" height="24" as="geometry" />
        </mxCell>
        <mxCell id="HPCLGDxQR15PkIXR5d-X-174" value="Сотрудник" style="shape=partialRectangle;top=0;left=0;right=0;bottom=0;html=1;align=left;verticalAlign=top;fillColor=none;spacingLeft=34;spacingRight=4;whiteSpace=wrap;overflow=hidden;rotatable=0;points=[[0,0.5],[1,0.5]];portConstraint=eastwest;dropTarget=0;" vertex="1" parent="HPCLGDxQR15PkIXR5d-X-22">
          <mxGeometry y="100" width="160" height="30" as="geometry" />
        </mxCell>
        <mxCell id="HPCLGDxQR15PkIXR5d-X-175" value="" style="shape=partialRectangle;top=0;left=0;bottom=0;html=1;fillColor=none;align=left;verticalAlign=top;spacingLeft=4;spacingRight=4;whiteSpace=wrap;overflow=hidden;rotatable=0;points=[];portConstraint=eastwest;part=1;" vertex="1" connectable="0" parent="HPCLGDxQR15PkIXR5d-X-174">
          <mxGeometry width="30" height="29.999999999999996" as="geometry" />
        </mxCell>
        <mxCell id="HPCLGDxQR15PkIXR5d-X-68" value="Книги инфо" style="swimlane;html=1;fontStyle=0;childLayout=stackLayout;horizontal=1;startSize=26;fillColor=#e0e0e0;horizontalStack=0;resizeParent=1;resizeLast=0;collapsible=1;marginBottom=0;swimlaneFillColor=#ffffff;align=center;rounded=1;shadow=0;comic=0;labelBackgroundColor=none;strokeWidth=1;fontFamily=Verdana;fontSize=14" vertex="1" parent="1">
          <mxGeometry x="110" y="1130" width="160" height="184" as="geometry" />
        </mxCell>
        <mxCell id="HPCLGDxQR15PkIXR5d-X-69" value="&lt;i style=&quot;font-size: 13px;&quot;&gt;&lt;span style=&quot;font-size: 13px; line-height: 107%;&quot;&gt;Книга_id *&lt;/span&gt;&lt;/i&gt;" style="shape=partialRectangle;top=0;left=0;right=0;bottom=0;html=1;align=left;verticalAlign=top;fillColor=none;spacingLeft=34;spacingRight=4;whiteSpace=wrap;overflow=hidden;rotatable=0;points=[[0,0.5],[1,0.5]];portConstraint=eastwest;dropTarget=0;fontSize=13;" vertex="1" parent="HPCLGDxQR15PkIXR5d-X-68">
          <mxGeometry y="26" width="160" height="24" as="geometry" />
        </mxCell>
        <mxCell id="HPCLGDxQR15PkIXR5d-X-70" value="" style="shape=partialRectangle;top=0;left=0;bottom=0;html=1;fillColor=none;align=left;verticalAlign=top;spacingLeft=4;spacingRight=4;whiteSpace=wrap;overflow=hidden;rotatable=0;points=[];portConstraint=eastwest;part=1;" vertex="1" connectable="0" parent="HPCLGDxQR15PkIXR5d-X-69">
          <mxGeometry width="30" height="24" as="geometry" />
        </mxCell>
        <mxCell id="HPCLGDxQR15PkIXR5d-X-148" value="&lt;i style=&quot;font-size: 13px;&quot;&gt;&lt;span style=&quot;font-size: 13px; line-height: 107%;&quot;&gt;Изнатель_id **&lt;/span&gt;&lt;/i&gt;" style="shape=partialRectangle;top=0;left=0;right=0;bottom=0;html=1;align=left;verticalAlign=top;fillColor=none;spacingLeft=34;spacingRight=4;whiteSpace=wrap;overflow=hidden;rotatable=0;points=[[0,0.5],[1,0.5]];portConstraint=eastwest;dropTarget=0;fontSize=13;" vertex="1" parent="HPCLGDxQR15PkIXR5d-X-68">
          <mxGeometry y="50" width="160" height="24" as="geometry" />
        </mxCell>
        <mxCell id="HPCLGDxQR15PkIXR5d-X-149" value="" style="shape=partialRectangle;top=0;left=0;bottom=0;html=1;fillColor=none;align=left;verticalAlign=top;spacingLeft=4;spacingRight=4;whiteSpace=wrap;overflow=hidden;rotatable=0;points=[];portConstraint=eastwest;part=1;" vertex="1" connectable="0" parent="HPCLGDxQR15PkIXR5d-X-148">
          <mxGeometry width="30" height="24" as="geometry" />
        </mxCell>
        <mxCell id="HPCLGDxQR15PkIXR5d-X-71" value="&lt;i&gt;&lt;span style=&quot;line-height: 107%;&quot;&gt;&lt;font style=&quot;font-size: 13px;&quot;&gt;Название книги&lt;/font&gt;&lt;/span&gt;&lt;/i&gt;" style="shape=partialRectangle;top=0;left=0;right=0;bottom=0;html=1;align=left;verticalAlign=top;fillColor=none;spacingLeft=34;spacingRight=4;whiteSpace=wrap;overflow=hidden;rotatable=0;points=[[0,0.5],[1,0.5]];portConstraint=eastwest;dropTarget=0;" vertex="1" parent="HPCLGDxQR15PkIXR5d-X-68">
          <mxGeometry y="74" width="160" height="26" as="geometry" />
        </mxCell>
        <mxCell id="HPCLGDxQR15PkIXR5d-X-72" value="" style="shape=partialRectangle;top=0;left=0;bottom=0;html=1;fillColor=none;align=left;verticalAlign=top;spacingLeft=4;spacingRight=4;whiteSpace=wrap;overflow=hidden;rotatable=0;points=[];portConstraint=eastwest;part=1;" vertex="1" connectable="0" parent="HPCLGDxQR15PkIXR5d-X-71">
          <mxGeometry width="30" height="26" as="geometry" />
        </mxCell>
        <mxCell id="HPCLGDxQR15PkIXR5d-X-73" value="&lt;i&gt;&lt;span style=&quot;font-size: 13px; line-height: 107%;&quot;&gt;Автор&lt;/span&gt;&lt;/i&gt;" style="shape=partialRectangle;top=0;left=0;right=0;bottom=0;html=1;align=left;verticalAlign=top;fillColor=none;spacingLeft=34;spacingRight=4;whiteSpace=wrap;overflow=hidden;rotatable=0;points=[[0,0.5],[1,0.5]];portConstraint=eastwest;dropTarget=0;" vertex="1" parent="HPCLGDxQR15PkIXR5d-X-68">
          <mxGeometry y="100" width="160" height="26" as="geometry" />
        </mxCell>
        <mxCell id="HPCLGDxQR15PkIXR5d-X-74" value="" style="shape=partialRectangle;top=0;left=0;bottom=0;html=1;fillColor=none;align=left;verticalAlign=top;spacingLeft=4;spacingRight=4;whiteSpace=wrap;overflow=hidden;rotatable=0;points=[];portConstraint=eastwest;part=1;" vertex="1" connectable="0" parent="HPCLGDxQR15PkIXR5d-X-73">
          <mxGeometry width="30" height="26" as="geometry" />
        </mxCell>
        <mxCell id="HPCLGDxQR15PkIXR5d-X-75" value="&lt;i style=&quot;font-size: 13px;&quot;&gt;&lt;span style=&quot;font-size: 13px; line-height: 107%;&quot;&gt;Год публикации&lt;/span&gt;&lt;/i&gt;" style="shape=partialRectangle;top=0;left=0;right=0;bottom=0;html=1;align=left;verticalAlign=top;fillColor=none;spacingLeft=34;spacingRight=4;whiteSpace=wrap;overflow=hidden;rotatable=0;points=[[0,0.5],[1,0.5]];portConstraint=eastwest;dropTarget=0;fontSize=13;" vertex="1" parent="HPCLGDxQR15PkIXR5d-X-68">
          <mxGeometry y="126" width="160" height="26" as="geometry" />
        </mxCell>
        <mxCell id="HPCLGDxQR15PkIXR5d-X-76" value="" style="shape=partialRectangle;top=0;left=0;bottom=0;html=1;fillColor=none;align=left;verticalAlign=top;spacingLeft=4;spacingRight=4;whiteSpace=wrap;overflow=hidden;rotatable=0;points=[];portConstraint=eastwest;part=1;" vertex="1" connectable="0" parent="HPCLGDxQR15PkIXR5d-X-75">
          <mxGeometry width="30" height="26" as="geometry" />
        </mxCell>
        <mxCell id="HPCLGDxQR15PkIXR5d-X-79" value="&lt;i style=&quot;font-size: 13px;&quot;&gt;&lt;span style=&quot;font-size: 13px; line-height: 15.6933px;&quot;&gt;Жанр&lt;/span&gt;&lt;/i&gt;" style="shape=partialRectangle;top=0;left=0;right=0;bottom=0;html=1;align=left;verticalAlign=top;fillColor=none;spacingLeft=34;spacingRight=4;whiteSpace=wrap;overflow=hidden;rotatable=0;points=[[0,0.5],[1,0.5]];portConstraint=eastwest;dropTarget=0;fontSize=13;" vertex="1" parent="HPCLGDxQR15PkIXR5d-X-68">
          <mxGeometry y="152" width="160" height="32" as="geometry" />
        </mxCell>
        <mxCell id="HPCLGDxQR15PkIXR5d-X-80" value="" style="shape=partialRectangle;top=0;left=0;bottom=0;html=1;fillColor=none;align=left;verticalAlign=top;spacingLeft=4;spacingRight=4;whiteSpace=wrap;overflow=hidden;rotatable=0;points=[];portConstraint=eastwest;part=1;" vertex="1" connectable="0" parent="HPCLGDxQR15PkIXR5d-X-79">
          <mxGeometry width="30" height="32" as="geometry" />
        </mxCell>
        <mxCell id="HPCLGDxQR15PkIXR5d-X-85" value="Издатель" style="swimlane;html=1;fontStyle=0;childLayout=stackLayout;horizontal=1;startSize=26;fillColor=#e0e0e0;horizontalStack=0;resizeParent=1;resizeLast=0;collapsible=1;marginBottom=0;swimlaneFillColor=#ffffff;align=center;rounded=1;shadow=0;comic=0;labelBackgroundColor=none;strokeWidth=1;fontFamily=Verdana;fontSize=14" vertex="1" parent="1">
          <mxGeometry x="350" y="1130" width="160" height="110" as="geometry" />
        </mxCell>
        <mxCell id="HPCLGDxQR15PkIXR5d-X-146" value="&lt;i style=&quot;font-size: 13px;&quot;&gt;&lt;span style=&quot;font-size: 13px; line-height: 107%;&quot;&gt;Издатель_id *&lt;/span&gt;&lt;/i&gt;" style="shape=partialRectangle;top=0;left=0;right=0;bottom=0;html=1;align=left;verticalAlign=top;fillColor=none;spacingLeft=34;spacingRight=4;whiteSpace=wrap;overflow=hidden;rotatable=0;points=[[0,0.5],[1,0.5]];portConstraint=eastwest;dropTarget=0;fontSize=13;" vertex="1" parent="HPCLGDxQR15PkIXR5d-X-85">
          <mxGeometry y="26" width="160" height="24" as="geometry" />
        </mxCell>
        <mxCell id="HPCLGDxQR15PkIXR5d-X-147" value="" style="shape=partialRectangle;top=0;left=0;bottom=0;html=1;fillColor=none;align=left;verticalAlign=top;spacingLeft=4;spacingRight=4;whiteSpace=wrap;overflow=hidden;rotatable=0;points=[];portConstraint=eastwest;part=1;" vertex="1" connectable="0" parent="HPCLGDxQR15PkIXR5d-X-146">
          <mxGeometry width="30" height="24" as="geometry" />
        </mxCell>
        <mxCell id="HPCLGDxQR15PkIXR5d-X-94" value="&lt;i&gt;&lt;span style=&quot;font-size: 13px; line-height: 107%;&quot;&gt;Имя издателя&lt;/span&gt;&lt;/i&gt;" style="shape=partialRectangle;top=0;left=0;right=0;bottom=0;html=1;align=left;verticalAlign=top;fillColor=none;spacingLeft=34;spacingRight=4;whiteSpace=wrap;overflow=hidden;rotatable=0;points=[[0,0.5],[1,0.5]];portConstraint=eastwest;dropTarget=0;" vertex="1" parent="HPCLGDxQR15PkIXR5d-X-85">
          <mxGeometry y="50" width="160" height="26" as="geometry" />
        </mxCell>
        <mxCell id="HPCLGDxQR15PkIXR5d-X-95" value="" style="shape=partialRectangle;top=0;left=0;bottom=0;html=1;fillColor=none;align=left;verticalAlign=top;spacingLeft=4;spacingRight=4;whiteSpace=wrap;overflow=hidden;rotatable=0;points=[];portConstraint=eastwest;part=1;" vertex="1" connectable="0" parent="HPCLGDxQR15PkIXR5d-X-94">
          <mxGeometry width="30" height="26" as="geometry" />
        </mxCell>
        <mxCell id="HPCLGDxQR15PkIXR5d-X-98" value="&lt;div style=&quot;font-size: 13px;&quot;&gt;&lt;i&gt;Адрес издателя&lt;/i&gt;&lt;/div&gt;" style="shape=partialRectangle;top=0;left=0;right=0;bottom=0;html=1;align=left;verticalAlign=top;fillColor=none;spacingLeft=34;spacingRight=4;whiteSpace=wrap;overflow=hidden;rotatable=0;points=[[0,0.5],[1,0.5]];portConstraint=eastwest;dropTarget=0;fontSize=13;" vertex="1" parent="HPCLGDxQR15PkIXR5d-X-85">
          <mxGeometry y="76" width="160" height="34" as="geometry" />
        </mxCell>
        <mxCell id="HPCLGDxQR15PkIXR5d-X-99" value="" style="shape=partialRectangle;top=0;left=0;bottom=0;html=1;fillColor=none;align=left;verticalAlign=top;spacingLeft=4;spacingRight=4;whiteSpace=wrap;overflow=hidden;rotatable=0;points=[];portConstraint=eastwest;part=1;" vertex="1" connectable="0" parent="HPCLGDxQR15PkIXR5d-X-98">
          <mxGeometry width="30" height="34" as="geometry" />
        </mxCell>
        <mxCell id="HPCLGDxQR15PkIXR5d-X-103" value="Читатели" style="swimlane;html=1;fontStyle=0;childLayout=stackLayout;horizontal=1;startSize=26;fillColor=#e0e0e0;horizontalStack=0;resizeParent=1;resizeLast=0;collapsible=1;marginBottom=0;swimlaneFillColor=#ffffff;align=center;rounded=1;shadow=0;comic=0;labelBackgroundColor=none;strokeWidth=1;fontFamily=Verdana;fontSize=14" vertex="1" parent="1">
          <mxGeometry x="110" y="1360" width="160" height="130" as="geometry" />
        </mxCell>
        <mxCell id="HPCLGDxQR15PkIXR5d-X-104" value="&lt;i style=&quot;font-size: 13px;&quot;&gt;&lt;span style=&quot;font-size: 13px; line-height: 107%;&quot;&gt;Читатель_id *&lt;/span&gt;&lt;/i&gt;" style="shape=partialRectangle;top=0;left=0;right=0;bottom=0;html=1;align=left;verticalAlign=top;fillColor=none;spacingLeft=34;spacingRight=4;whiteSpace=wrap;overflow=hidden;rotatable=0;points=[[0,0.5],[1,0.5]];portConstraint=eastwest;dropTarget=0;fontSize=13;" vertex="1" parent="HPCLGDxQR15PkIXR5d-X-103">
          <mxGeometry y="26" width="160" height="24" as="geometry" />
        </mxCell>
        <mxCell id="HPCLGDxQR15PkIXR5d-X-105" value="" style="shape=partialRectangle;top=0;left=0;bottom=0;html=1;fillColor=none;align=left;verticalAlign=top;spacingLeft=4;spacingRight=4;whiteSpace=wrap;overflow=hidden;rotatable=0;points=[];portConstraint=eastwest;part=1;" vertex="1" connectable="0" parent="HPCLGDxQR15PkIXR5d-X-104">
          <mxGeometry width="30" height="24" as="geometry" />
        </mxCell>
        <mxCell id="HPCLGDxQR15PkIXR5d-X-106" value="&lt;i&gt;&lt;span style=&quot;line-height: 107%;&quot;&gt;&lt;font style=&quot;font-size: 13px;&quot;&gt;Имя читателя&lt;/font&gt;&lt;/span&gt;&lt;/i&gt;" style="shape=partialRectangle;top=0;left=0;right=0;bottom=0;html=1;align=left;verticalAlign=top;fillColor=none;spacingLeft=34;spacingRight=4;whiteSpace=wrap;overflow=hidden;rotatable=0;points=[[0,0.5],[1,0.5]];portConstraint=eastwest;dropTarget=0;" vertex="1" parent="HPCLGDxQR15PkIXR5d-X-103">
          <mxGeometry y="50" width="160" height="26" as="geometry" />
        </mxCell>
        <mxCell id="HPCLGDxQR15PkIXR5d-X-107" value="" style="shape=partialRectangle;top=0;left=0;bottom=0;html=1;fillColor=none;align=left;verticalAlign=top;spacingLeft=4;spacingRight=4;whiteSpace=wrap;overflow=hidden;rotatable=0;points=[];portConstraint=eastwest;part=1;" vertex="1" connectable="0" parent="HPCLGDxQR15PkIXR5d-X-106">
          <mxGeometry width="30" height="26" as="geometry" />
        </mxCell>
        <mxCell id="HPCLGDxQR15PkIXR5d-X-108" value="&lt;i&gt;&lt;span style=&quot;font-size: 13px; line-height: 107%;&quot;&gt;Адрес&lt;/span&gt;&lt;/i&gt;" style="shape=partialRectangle;top=0;left=0;right=0;bottom=0;html=1;align=left;verticalAlign=top;fillColor=none;spacingLeft=34;spacingRight=4;whiteSpace=wrap;overflow=hidden;rotatable=0;points=[[0,0.5],[1,0.5]];portConstraint=eastwest;dropTarget=0;" vertex="1" parent="HPCLGDxQR15PkIXR5d-X-103">
          <mxGeometry y="76" width="160" height="26" as="geometry" />
        </mxCell>
        <mxCell id="HPCLGDxQR15PkIXR5d-X-109" value="" style="shape=partialRectangle;top=0;left=0;bottom=0;html=1;fillColor=none;align=left;verticalAlign=top;spacingLeft=4;spacingRight=4;whiteSpace=wrap;overflow=hidden;rotatable=0;points=[];portConstraint=eastwest;part=1;" vertex="1" connectable="0" parent="HPCLGDxQR15PkIXR5d-X-108">
          <mxGeometry width="30" height="26" as="geometry" />
        </mxCell>
        <mxCell id="HPCLGDxQR15PkIXR5d-X-110" value="&lt;i style=&quot;font-size: 13px;&quot;&gt;&lt;span style=&quot;font-size: 13px; line-height: 107%;&quot;&gt;Телефон&amp;nbsp;&lt;/span&gt;&lt;/i&gt;" style="shape=partialRectangle;top=0;left=0;right=0;bottom=0;html=1;align=left;verticalAlign=top;fillColor=none;spacingLeft=34;spacingRight=4;whiteSpace=wrap;overflow=hidden;rotatable=0;points=[[0,0.5],[1,0.5]];portConstraint=eastwest;dropTarget=0;fontSize=13;" vertex="1" parent="HPCLGDxQR15PkIXR5d-X-103">
          <mxGeometry y="102" width="160" height="26" as="geometry" />
        </mxCell>
        <mxCell id="HPCLGDxQR15PkIXR5d-X-111" value="" style="shape=partialRectangle;top=0;left=0;bottom=0;html=1;fillColor=none;align=left;verticalAlign=top;spacingLeft=4;spacingRight=4;whiteSpace=wrap;overflow=hidden;rotatable=0;points=[];portConstraint=eastwest;part=1;" vertex="1" connectable="0" parent="HPCLGDxQR15PkIXR5d-X-110">
          <mxGeometry width="30" height="26" as="geometry" />
        </mxCell>
        <mxCell id="HPCLGDxQR15PkIXR5d-X-122" value="Выдача книг" style="swimlane;html=1;fontStyle=0;childLayout=stackLayout;horizontal=1;startSize=26;fillColor=#e0e0e0;horizontalStack=0;resizeParent=1;resizeLast=0;collapsible=1;marginBottom=0;swimlaneFillColor=#ffffff;align=center;rounded=1;shadow=0;comic=0;labelBackgroundColor=none;strokeWidth=1;fontFamily=Verdana;fontSize=14" vertex="1" parent="1">
          <mxGeometry x="351" y="1360" width="190" height="160" as="geometry" />
        </mxCell>
        <mxCell id="HPCLGDxQR15PkIXR5d-X-144" value="&lt;i style=&quot;font-size: 13px;&quot;&gt;&lt;span style=&quot;font-size: 13px; line-height: 107%;&quot;&gt;Номер выдачи *&lt;/span&gt;&lt;/i&gt;" style="shape=partialRectangle;top=0;left=0;right=0;bottom=0;html=1;align=left;verticalAlign=top;fillColor=none;spacingLeft=34;spacingRight=4;whiteSpace=wrap;overflow=hidden;rotatable=0;points=[[0,0.5],[1,0.5]];portConstraint=eastwest;dropTarget=0;fontSize=13;" vertex="1" parent="HPCLGDxQR15PkIXR5d-X-122">
          <mxGeometry y="26" width="190" height="24" as="geometry" />
        </mxCell>
        <mxCell id="HPCLGDxQR15PkIXR5d-X-145" value="" style="shape=partialRectangle;top=0;left=0;bottom=0;html=1;fillColor=none;align=left;verticalAlign=top;spacingLeft=4;spacingRight=4;whiteSpace=wrap;overflow=hidden;rotatable=0;points=[];portConstraint=eastwest;part=1;" vertex="1" connectable="0" parent="HPCLGDxQR15PkIXR5d-X-144">
          <mxGeometry width="30" height="24" as="geometry" />
        </mxCell>
        <mxCell id="HPCLGDxQR15PkIXR5d-X-123" value="&lt;i style=&quot;font-size: 13px;&quot;&gt;&lt;span style=&quot;font-size: 13px; line-height: 107%;&quot;&gt;Читатель_id **&lt;/span&gt;&lt;/i&gt;" style="shape=partialRectangle;top=0;left=0;right=0;bottom=0;html=1;align=left;verticalAlign=top;fillColor=none;spacingLeft=34;spacingRight=4;whiteSpace=wrap;overflow=hidden;rotatable=0;points=[[0,0.5],[1,0.5]];portConstraint=eastwest;dropTarget=0;fontSize=13;" vertex="1" parent="HPCLGDxQR15PkIXR5d-X-122">
          <mxGeometry y="50" width="190" height="24" as="geometry" />
        </mxCell>
        <mxCell id="HPCLGDxQR15PkIXR5d-X-124" value="" style="shape=partialRectangle;top=0;left=0;bottom=0;html=1;fillColor=none;align=left;verticalAlign=top;spacingLeft=4;spacingRight=4;whiteSpace=wrap;overflow=hidden;rotatable=0;points=[];portConstraint=eastwest;part=1;" vertex="1" connectable="0" parent="HPCLGDxQR15PkIXR5d-X-123">
          <mxGeometry width="30" height="24" as="geometry" />
        </mxCell>
        <mxCell id="HPCLGDxQR15PkIXR5d-X-135" value="&lt;i style=&quot;font-size: 13px;&quot;&gt;&lt;span style=&quot;font-size: 13px; line-height: 107%;&quot;&gt;Книга_id **&lt;/span&gt;&lt;/i&gt;" style="shape=partialRectangle;top=0;left=0;right=0;bottom=0;html=1;align=left;verticalAlign=top;fillColor=none;spacingLeft=34;spacingRight=4;whiteSpace=wrap;overflow=hidden;rotatable=0;points=[[0,0.5],[1,0.5]];portConstraint=eastwest;dropTarget=0;fontSize=13;spacingBottom=0;" vertex="1" parent="HPCLGDxQR15PkIXR5d-X-122">
          <mxGeometry y="74" width="190" height="26" as="geometry" />
        </mxCell>
        <mxCell id="HPCLGDxQR15PkIXR5d-X-136" value="" style="shape=partialRectangle;top=0;left=0;bottom=0;html=1;fillColor=none;align=left;verticalAlign=top;spacingLeft=4;spacingRight=4;whiteSpace=wrap;overflow=hidden;rotatable=0;points=[];portConstraint=eastwest;part=1;" vertex="1" connectable="0" parent="HPCLGDxQR15PkIXR5d-X-135">
          <mxGeometry width="30" height="26" as="geometry" />
        </mxCell>
        <mxCell id="HPCLGDxQR15PkIXR5d-X-131" value="&lt;i style=&quot;font-size: 13px;&quot;&gt;&lt;span style=&quot;font-size: 13px; line-height: 107%;&quot;&gt;Дата выдачи книги&lt;/span&gt;&lt;/i&gt;" style="shape=partialRectangle;top=0;left=0;right=0;bottom=0;html=1;align=left;verticalAlign=top;fillColor=none;spacingLeft=34;spacingRight=4;whiteSpace=wrap;overflow=hidden;rotatable=0;points=[[0,0.5],[1,0.5]];portConstraint=eastwest;dropTarget=0;fontSize=13;" vertex="1" parent="HPCLGDxQR15PkIXR5d-X-122">
          <mxGeometry y="100" width="190" height="30" as="geometry" />
        </mxCell>
        <mxCell id="HPCLGDxQR15PkIXR5d-X-132" value="" style="shape=partialRectangle;top=0;left=0;bottom=0;html=1;fillColor=none;align=left;verticalAlign=top;spacingLeft=4;spacingRight=4;whiteSpace=wrap;overflow=hidden;rotatable=0;points=[];portConstraint=eastwest;part=1;" vertex="1" connectable="0" parent="HPCLGDxQR15PkIXR5d-X-131">
          <mxGeometry width="30" height="29.999999999999996" as="geometry" />
        </mxCell>
        <mxCell id="HPCLGDxQR15PkIXR5d-X-133" value="&lt;i&gt;&lt;span style=&quot;font-size: 13px; line-height: 107%;&quot;&gt;Дата возврата книги&lt;/span&gt;&lt;/i&gt;" style="shape=partialRectangle;top=0;left=0;right=0;bottom=0;html=1;align=left;verticalAlign=top;fillColor=none;spacingLeft=34;spacingRight=4;whiteSpace=wrap;overflow=hidden;rotatable=0;points=[[0,0.5],[1,0.5]];portConstraint=eastwest;dropTarget=0;" vertex="1" parent="HPCLGDxQR15PkIXR5d-X-122">
          <mxGeometry y="130" width="190" height="30" as="geometry" />
        </mxCell>
        <mxCell id="HPCLGDxQR15PkIXR5d-X-134" value="" style="shape=partialRectangle;top=0;left=0;bottom=0;html=1;fillColor=none;align=left;verticalAlign=top;spacingLeft=4;spacingRight=4;whiteSpace=wrap;overflow=hidden;rotatable=0;points=[];portConstraint=eastwest;part=1;" vertex="1" connectable="0" parent="HPCLGDxQR15PkIXR5d-X-133">
          <mxGeometry width="30" height="30" as="geometry" />
        </mxCell>
        <mxCell id="HPCLGDxQR15PkIXR5d-X-142" style="edgeStyle=orthogonalEdgeStyle;rounded=0;orthogonalLoop=1;jettySize=auto;html=1;exitX=1;exitY=0.74;exitDx=0;exitDy=0;endArrow=ERzeroToMany;endFill=0;startArrow=ERmandOne;startFill=0;exitPerimeter=0;" edge="1" parent="1" source="HPCLGDxQR15PkIXR5d-X-104">
          <mxGeometry relative="1" as="geometry">
            <mxPoint x="350" y="1423" as="targetPoint" />
            <Array as="points">
              <mxPoint x="290" y="1404" />
              <mxPoint x="290" y="1423" />
            </Array>
          </mxGeometry>
        </mxCell>
        <mxCell id="HPCLGDxQR15PkIXR5d-X-152" style="edgeStyle=orthogonalEdgeStyle;rounded=0;orthogonalLoop=1;jettySize=auto;html=1;exitX=0.999;exitY=0.676;exitDx=0;exitDy=0;entryX=-0.003;entryY=0.779;entryDx=0;entryDy=0;endArrow=ERmandOne;endFill=0;startArrow=ERoneToMany;startFill=0;exitPerimeter=0;entryPerimeter=0;" edge="1" parent="1" source="HPCLGDxQR15PkIXR5d-X-148" target="HPCLGDxQR15PkIXR5d-X-146">
          <mxGeometry relative="1" as="geometry">
            <mxPoint x="271" y="1200" as="sourcePoint" />
            <mxPoint x="351" y="1200" as="targetPoint" />
            <Array as="points">
              <mxPoint x="330" y="1196" />
              <mxPoint x="330" y="1175" />
            </Array>
          </mxGeometry>
        </mxCell>
        <mxCell id="HPCLGDxQR15PkIXR5d-X-153" style="edgeStyle=orthogonalEdgeStyle;rounded=0;orthogonalLoop=1;jettySize=auto;html=1;exitX=0;exitY=0.5;exitDx=0;exitDy=0;endArrow=ERmandOne;endFill=0;startArrow=ERzeroToMany;startFill=0;" edge="1" parent="1" source="HPCLGDxQR15PkIXR5d-X-135">
          <mxGeometry relative="1" as="geometry">
            <mxPoint x="397" y="1338" as="sourcePoint" />
            <mxPoint x="270" y="1170" as="targetPoint" />
            <Array as="points">
              <mxPoint x="310" y="1447" />
              <mxPoint x="310" y="1170" />
            </Array>
          </mxGeometry>
        </mxCell>
        <mxCell id="HPCLGDxQR15PkIXR5d-X-154" style="edgeStyle=orthogonalEdgeStyle;rounded=0;orthogonalLoop=1;jettySize=auto;html=1;exitX=1;exitY=0.5;exitDx=0;exitDy=0;entryX=0;entryY=0.5;entryDx=0;entryDy=0;endArrow=ERmandOne;endFill=0;startArrow=ERzeroToMany;startFill=0;" edge="1" parent="1" source="HPCLGDxQR15PkIXR5d-X-170" target="HPCLGDxQR15PkIXR5d-X-14">
          <mxGeometry relative="1" as="geometry" />
        </mxCell>
        <mxCell id="HPCLGDxQR15PkIXR5d-X-158" value="Клиентская база" style="swimlane;html=1;fontStyle=0;childLayout=stackLayout;horizontal=1;startSize=26;fillColor=#e0e0e0;horizontalStack=0;resizeParent=1;resizeLast=0;collapsible=1;marginBottom=0;swimlaneFillColor=#ffffff;align=center;rounded=1;shadow=0;comic=0;labelBackgroundColor=none;strokeWidth=1;fontFamily=Verdana;fontSize=14" vertex="1" parent="1">
          <mxGeometry x="100" y="840" width="160" height="80" as="geometry" />
        </mxCell>
        <mxCell id="HPCLGDxQR15PkIXR5d-X-161" value="Клиент *" style="shape=partialRectangle;top=0;left=0;right=0;bottom=0;html=1;align=left;verticalAlign=top;fillColor=none;spacingLeft=34;spacingRight=4;whiteSpace=wrap;overflow=hidden;rotatable=0;points=[[0,0.5],[1,0.5]];portConstraint=eastwest;dropTarget=0;" vertex="1" parent="HPCLGDxQR15PkIXR5d-X-158">
          <mxGeometry y="26" width="160" height="26" as="geometry" />
        </mxCell>
        <mxCell id="HPCLGDxQR15PkIXR5d-X-162" value="" style="shape=partialRectangle;top=0;left=0;bottom=0;html=1;fillColor=none;align=left;verticalAlign=top;spacingLeft=4;spacingRight=4;whiteSpace=wrap;overflow=hidden;rotatable=0;points=[];portConstraint=eastwest;part=1;" vertex="1" connectable="0" parent="HPCLGDxQR15PkIXR5d-X-161">
          <mxGeometry width="30" height="26" as="geometry" />
        </mxCell>
        <mxCell id="HPCLGDxQR15PkIXR5d-X-159" value="&quot;инфо и пр&quot;" style="shape=partialRectangle;top=0;left=0;right=0;bottom=0;html=1;align=left;verticalAlign=top;fillColor=none;spacingLeft=34;spacingRight=4;whiteSpace=wrap;overflow=hidden;rotatable=0;points=[[0,0.5],[1,0.5]];portConstraint=eastwest;dropTarget=0;" vertex="1" parent="HPCLGDxQR15PkIXR5d-X-158">
          <mxGeometry y="52" width="160" height="28" as="geometry" />
        </mxCell>
        <mxCell id="HPCLGDxQR15PkIXR5d-X-160" value="" style="shape=partialRectangle;top=0;left=0;bottom=0;html=1;fillColor=none;align=left;verticalAlign=top;spacingLeft=4;spacingRight=4;whiteSpace=wrap;overflow=hidden;rotatable=0;points=[];portConstraint=eastwest;part=1;" vertex="1" connectable="0" parent="HPCLGDxQR15PkIXR5d-X-159">
          <mxGeometry width="30" height="28" as="geometry" />
        </mxCell>
        <mxCell id="HPCLGDxQR15PkIXR5d-X-169" style="edgeStyle=orthogonalEdgeStyle;rounded=0;orthogonalLoop=1;jettySize=auto;html=1;exitX=1;exitY=0.5;exitDx=0;exitDy=0;entryX=0;entryY=0.5;entryDx=0;entryDy=0;endArrow=ERmandOne;endFill=0;startArrow=ERoneToMany;startFill=0;" edge="1" parent="1" source="HPCLGDxQR15PkIXR5d-X-4" target="HPCLGDxQR15PkIXR5d-X-23">
          <mxGeometry relative="1" as="geometry" />
        </mxCell>
        <mxCell id="HPCLGDxQR15PkIXR5d-X-172" value="Если товары рассортированы по 1 на каждую строку, а Id заказа повторяется" style="text;strokeColor=none;align=center;fillColor=none;html=1;verticalAlign=middle;whiteSpace=wrap;rounded=0;" vertex="1" parent="1">
          <mxGeometry x="100" y="620" width="190" height="30" as="geometry" />
        </mxCell>
        <mxCell id="HPCLGDxQR15PkIXR5d-X-173" style="edgeStyle=orthogonalEdgeStyle;rounded=0;orthogonalLoop=1;jettySize=auto;html=1;exitX=0;exitY=0.5;exitDx=0;exitDy=0;entryX=1;entryY=0.5;entryDx=0;entryDy=0;endArrow=ERmandOne;endFill=0;startArrow=ERzeroToMany;startFill=0;" edge="1" parent="1" source="HPCLGDxQR15PkIXR5d-X-25" target="HPCLGDxQR15PkIXR5d-X-161">
          <mxGeometry relative="1" as="geometry">
            <Array as="points">
              <mxPoint x="390" y="743" />
              <mxPoint x="390" y="879" />
            </Array>
          </mxGeometry>
        </mxCell>
        <mxCell id="HPCLGDxQR15PkIXR5d-X-176" value="Возможно она и не нужна сейчас&amp;nbsp;" style="text;strokeColor=none;align=center;fillColor=none;html=1;verticalAlign=middle;whiteSpace=wrap;rounded=0;" vertex="1" parent="1">
          <mxGeometry x="85" y="930" width="190" height="30" as="geometry" />
        </mxCell>
        <mxCell id="HPCLGDxQR15PkIXR5d-X-184" value="Товары" style="swimlane;html=1;fontStyle=0;childLayout=stackLayout;horizontal=1;startSize=26;fillColor=#e0e0e0;horizontalStack=0;resizeParent=1;resizeLast=0;collapsible=1;marginBottom=0;swimlaneFillColor=#ffffff;align=center;rounded=1;shadow=0;comic=0;labelBackgroundColor=none;strokeWidth=1;fontFamily=Verdana;fontSize=14" vertex="1" parent="1">
          <mxGeometry x="760" y="640" width="160" height="80" as="geometry" />
        </mxCell>
        <mxCell id="HPCLGDxQR15PkIXR5d-X-185" value="Товар_id *" style="shape=partialRectangle;top=0;left=0;right=0;bottom=0;html=1;align=left;verticalAlign=top;fillColor=none;spacingLeft=34;spacingRight=4;whiteSpace=wrap;overflow=hidden;rotatable=0;points=[[0,0.5],[1,0.5]];portConstraint=eastwest;dropTarget=0;" vertex="1" parent="HPCLGDxQR15PkIXR5d-X-184">
          <mxGeometry y="26" width="160" height="24" as="geometry" />
        </mxCell>
        <mxCell id="HPCLGDxQR15PkIXR5d-X-186" value="" style="shape=partialRectangle;top=0;left=0;bottom=0;html=1;fillColor=none;align=left;verticalAlign=top;spacingLeft=4;spacingRight=4;whiteSpace=wrap;overflow=hidden;rotatable=0;points=[];portConstraint=eastwest;part=1;" vertex="1" connectable="0" parent="HPCLGDxQR15PkIXR5d-X-185">
          <mxGeometry width="30" height="24" as="geometry" />
        </mxCell>
        <mxCell id="HPCLGDxQR15PkIXR5d-X-187" value="Поставщик" style="shape=partialRectangle;top=0;left=0;right=0;bottom=0;html=1;align=left;verticalAlign=top;fillColor=none;spacingLeft=34;spacingRight=4;whiteSpace=wrap;overflow=hidden;rotatable=0;points=[[0,0.5],[1,0.5]];portConstraint=eastwest;dropTarget=0;" vertex="1" parent="HPCLGDxQR15PkIXR5d-X-184">
          <mxGeometry y="50" width="160" height="30" as="geometry" />
        </mxCell>
        <mxCell id="HPCLGDxQR15PkIXR5d-X-188" value="" style="shape=partialRectangle;top=0;left=0;bottom=0;html=1;fillColor=none;align=left;verticalAlign=top;spacingLeft=4;spacingRight=4;whiteSpace=wrap;overflow=hidden;rotatable=0;points=[];portConstraint=eastwest;part=1;" vertex="1" connectable="0" parent="HPCLGDxQR15PkIXR5d-X-187">
          <mxGeometry width="30" height="29.999999999999996" as="geometry" />
        </mxCell>
        <mxCell id="HPCLGDxQR15PkIXR5d-X-189" value="Оплата и сборка" style="swimlane;html=1;fontStyle=0;childLayout=stackLayout;horizontal=1;startSize=26;fillColor=#e0e0e0;horizontalStack=0;resizeParent=1;resizeLast=0;collapsible=1;marginBottom=0;swimlaneFillColor=#ffffff;align=center;rounded=1;shadow=0;comic=0;labelBackgroundColor=none;strokeWidth=1;fontFamily=Verdana;fontSize=14" vertex="1" parent="1">
          <mxGeometry x="1070" y="700" width="160" height="160" as="geometry" />
        </mxCell>
        <mxCell id="HPCLGDxQR15PkIXR5d-X-190" value="Заказ (id) *" style="shape=partialRectangle;top=0;left=0;right=0;bottom=0;html=1;align=left;verticalAlign=top;fillColor=none;spacingLeft=34;spacingRight=4;whiteSpace=wrap;overflow=hidden;rotatable=0;points=[[0,0.5],[1,0.5]];portConstraint=eastwest;dropTarget=0;" vertex="1" parent="HPCLGDxQR15PkIXR5d-X-189">
          <mxGeometry y="26" width="160" height="24" as="geometry" />
        </mxCell>
        <mxCell id="HPCLGDxQR15PkIXR5d-X-191" value="" style="shape=partialRectangle;top=0;left=0;bottom=0;html=1;fillColor=none;align=left;verticalAlign=top;spacingLeft=4;spacingRight=4;whiteSpace=wrap;overflow=hidden;rotatable=0;points=[];portConstraint=eastwest;part=1;" vertex="1" connectable="0" parent="HPCLGDxQR15PkIXR5d-X-190">
          <mxGeometry width="30" height="24" as="geometry" />
        </mxCell>
        <mxCell id="HPCLGDxQR15PkIXR5d-X-208" value="Список id товаров **" style="shape=partialRectangle;top=0;left=0;right=0;bottom=0;html=1;align=left;verticalAlign=top;fillColor=none;spacingLeft=34;spacingRight=4;whiteSpace=wrap;overflow=hidden;rotatable=0;points=[[0,0.5],[1,0.5]];portConstraint=eastwest;dropTarget=0;" vertex="1" parent="HPCLGDxQR15PkIXR5d-X-189">
          <mxGeometry y="50" width="160" height="30" as="geometry" />
        </mxCell>
        <mxCell id="HPCLGDxQR15PkIXR5d-X-209" value="" style="shape=partialRectangle;top=0;left=0;bottom=0;html=1;fillColor=none;align=left;verticalAlign=top;spacingLeft=4;spacingRight=4;whiteSpace=wrap;overflow=hidden;rotatable=0;points=[];portConstraint=eastwest;part=1;" vertex="1" connectable="0" parent="HPCLGDxQR15PkIXR5d-X-208">
          <mxGeometry width="30" height="30" as="geometry" />
        </mxCell>
        <mxCell id="HPCLGDxQR15PkIXR5d-X-192" value="Клиент **" style="shape=partialRectangle;top=0;left=0;right=0;bottom=0;html=1;align=left;verticalAlign=top;fillColor=none;spacingLeft=34;spacingRight=4;whiteSpace=wrap;overflow=hidden;rotatable=0;points=[[0,0.5],[1,0.5]];portConstraint=eastwest;dropTarget=0;" vertex="1" parent="HPCLGDxQR15PkIXR5d-X-189">
          <mxGeometry y="80" width="160" height="26" as="geometry" />
        </mxCell>
        <mxCell id="HPCLGDxQR15PkIXR5d-X-193" value="" style="shape=partialRectangle;top=0;left=0;bottom=0;html=1;fillColor=none;align=left;verticalAlign=top;spacingLeft=4;spacingRight=4;whiteSpace=wrap;overflow=hidden;rotatable=0;points=[];portConstraint=eastwest;part=1;" vertex="1" connectable="0" parent="HPCLGDxQR15PkIXR5d-X-192">
          <mxGeometry width="30" height="26" as="geometry" />
        </mxCell>
        <mxCell id="HPCLGDxQR15PkIXR5d-X-196" value="Сотрудник **" style="shape=partialRectangle;top=0;left=0;right=0;bottom=0;html=1;align=left;verticalAlign=top;fillColor=none;spacingLeft=34;spacingRight=4;whiteSpace=wrap;overflow=hidden;rotatable=0;points=[[0,0.5],[1,0.5]];portConstraint=eastwest;dropTarget=0;" vertex="1" parent="HPCLGDxQR15PkIXR5d-X-189">
          <mxGeometry y="106" width="160" height="24" as="geometry" />
        </mxCell>
        <mxCell id="HPCLGDxQR15PkIXR5d-X-197" value="" style="shape=partialRectangle;top=0;left=0;bottom=0;html=1;fillColor=none;align=left;verticalAlign=top;spacingLeft=4;spacingRight=4;whiteSpace=wrap;overflow=hidden;rotatable=0;points=[];portConstraint=eastwest;part=1;" vertex="1" connectable="0" parent="HPCLGDxQR15PkIXR5d-X-196">
          <mxGeometry width="30" height="24" as="geometry" />
        </mxCell>
        <mxCell id="HPCLGDxQR15PkIXR5d-X-194" value="Платеж&amp;nbsp;" style="shape=partialRectangle;top=0;left=0;right=0;bottom=0;html=1;align=left;verticalAlign=top;fillColor=none;spacingLeft=34;spacingRight=4;whiteSpace=wrap;overflow=hidden;rotatable=0;points=[[0,0.5],[1,0.5]];portConstraint=eastwest;dropTarget=0;" vertex="1" parent="HPCLGDxQR15PkIXR5d-X-189">
          <mxGeometry y="130" width="160" height="30" as="geometry" />
        </mxCell>
        <mxCell id="HPCLGDxQR15PkIXR5d-X-195" value="" style="shape=partialRectangle;top=0;left=0;bottom=0;html=1;fillColor=none;align=left;verticalAlign=top;spacingLeft=4;spacingRight=4;whiteSpace=wrap;overflow=hidden;rotatable=0;points=[];portConstraint=eastwest;part=1;" vertex="1" connectable="0" parent="HPCLGDxQR15PkIXR5d-X-194">
          <mxGeometry width="30" height="30" as="geometry" />
        </mxCell>
        <mxCell id="HPCLGDxQR15PkIXR5d-X-199" value="Клиентская база" style="swimlane;html=1;fontStyle=0;childLayout=stackLayout;horizontal=1;startSize=26;fillColor=#e0e0e0;horizontalStack=0;resizeParent=1;resizeLast=0;collapsible=1;marginBottom=0;swimlaneFillColor=#ffffff;align=center;rounded=1;shadow=0;comic=0;labelBackgroundColor=none;strokeWidth=1;fontFamily=Verdana;fontSize=14" vertex="1" parent="1">
          <mxGeometry x="760" y="754" width="160" height="80" as="geometry" />
        </mxCell>
        <mxCell id="HPCLGDxQR15PkIXR5d-X-200" value="Клиент *" style="shape=partialRectangle;top=0;left=0;right=0;bottom=0;html=1;align=left;verticalAlign=top;fillColor=none;spacingLeft=34;spacingRight=4;whiteSpace=wrap;overflow=hidden;rotatable=0;points=[[0,0.5],[1,0.5]];portConstraint=eastwest;dropTarget=0;" vertex="1" parent="HPCLGDxQR15PkIXR5d-X-199">
          <mxGeometry y="26" width="160" height="26" as="geometry" />
        </mxCell>
        <mxCell id="HPCLGDxQR15PkIXR5d-X-201" value="" style="shape=partialRectangle;top=0;left=0;bottom=0;html=1;fillColor=none;align=left;verticalAlign=top;spacingLeft=4;spacingRight=4;whiteSpace=wrap;overflow=hidden;rotatable=0;points=[];portConstraint=eastwest;part=1;" vertex="1" connectable="0" parent="HPCLGDxQR15PkIXR5d-X-200">
          <mxGeometry width="30" height="26" as="geometry" />
        </mxCell>
        <mxCell id="HPCLGDxQR15PkIXR5d-X-202" value="&quot;инфо и пр&quot;" style="shape=partialRectangle;top=0;left=0;right=0;bottom=0;html=1;align=left;verticalAlign=top;fillColor=none;spacingLeft=34;spacingRight=4;whiteSpace=wrap;overflow=hidden;rotatable=0;points=[[0,0.5],[1,0.5]];portConstraint=eastwest;dropTarget=0;" vertex="1" parent="HPCLGDxQR15PkIXR5d-X-199">
          <mxGeometry y="52" width="160" height="28" as="geometry" />
        </mxCell>
        <mxCell id="HPCLGDxQR15PkIXR5d-X-203" value="" style="shape=partialRectangle;top=0;left=0;bottom=0;html=1;fillColor=none;align=left;verticalAlign=top;spacingLeft=4;spacingRight=4;whiteSpace=wrap;overflow=hidden;rotatable=0;points=[];portConstraint=eastwest;part=1;" vertex="1" connectable="0" parent="HPCLGDxQR15PkIXR5d-X-202">
          <mxGeometry width="30" height="28" as="geometry" />
        </mxCell>
        <mxCell id="HPCLGDxQR15PkIXR5d-X-204" style="edgeStyle=orthogonalEdgeStyle;rounded=0;orthogonalLoop=1;jettySize=auto;html=1;exitX=1.004;exitY=0.803;exitDx=0;exitDy=0;endArrow=ERmandOne;endFill=0;startArrow=ERoneToMany;startFill=0;exitPerimeter=0;" edge="1" parent="1">
          <mxGeometry relative="1" as="geometry">
            <mxPoint x="919.9999999999999" y="680.002" as="sourcePoint" />
            <mxPoint x="1069" y="770" as="targetPoint" />
            <Array as="points">
              <mxPoint x="1019" y="680" />
              <mxPoint x="1019" y="770" />
            </Array>
          </mxGeometry>
        </mxCell>
        <mxCell id="HPCLGDxQR15PkIXR5d-X-206" style="edgeStyle=orthogonalEdgeStyle;rounded=0;orthogonalLoop=1;jettySize=auto;html=1;exitX=0;exitY=0.5;exitDx=0;exitDy=0;endArrow=ERmandOne;endFill=0;startArrow=ERzeroToMany;startFill=0;" edge="1" parent="1" source="HPCLGDxQR15PkIXR5d-X-192" target="HPCLGDxQR15PkIXR5d-X-200">
          <mxGeometry relative="1" as="geometry">
            <Array as="points" />
          </mxGeometry>
        </mxCell>
        <mxCell id="HPCLGDxQR15PkIXR5d-X-207" value="Возможно они лишние..." style="text;strokeColor=none;align=center;fillColor=none;html=1;verticalAlign=middle;whiteSpace=wrap;rounded=0;" vertex="1" parent="1">
          <mxGeometry x="745" y="960" width="190" height="30" as="geometry" />
        </mxCell>
        <mxCell id="HPCLGDxQR15PkIXR5d-X-211" value="Если у нас список id товаров, и id заказов не повторятеся" style="text;strokeColor=none;align=center;fillColor=none;html=1;verticalAlign=middle;whiteSpace=wrap;rounded=0;" vertex="1" parent="1">
          <mxGeometry x="1050" y="640" width="220" height="30" as="geometry" />
        </mxCell>
        <mxCell id="HPCLGDxQR15PkIXR5d-X-212" value="База сотрудников" style="swimlane;html=1;fontStyle=0;childLayout=stackLayout;horizontal=1;startSize=26;fillColor=#e0e0e0;horizontalStack=0;resizeParent=1;resizeLast=0;collapsible=1;marginBottom=0;swimlaneFillColor=#ffffff;align=center;rounded=1;shadow=0;comic=0;labelBackgroundColor=none;strokeWidth=1;fontFamily=Verdana;fontSize=14" vertex="1" parent="1">
          <mxGeometry x="760" y="860" width="160" height="80" as="geometry" />
        </mxCell>
        <mxCell id="HPCLGDxQR15PkIXR5d-X-213" value="Сотрудник id *" style="shape=partialRectangle;top=0;left=0;right=0;bottom=0;html=1;align=left;verticalAlign=top;fillColor=none;spacingLeft=34;spacingRight=4;whiteSpace=wrap;overflow=hidden;rotatable=0;points=[[0,0.5],[1,0.5]];portConstraint=eastwest;dropTarget=0;" vertex="1" parent="HPCLGDxQR15PkIXR5d-X-212">
          <mxGeometry y="26" width="160" height="26" as="geometry" />
        </mxCell>
        <mxCell id="HPCLGDxQR15PkIXR5d-X-214" value="" style="shape=partialRectangle;top=0;left=0;bottom=0;html=1;fillColor=none;align=left;verticalAlign=top;spacingLeft=4;spacingRight=4;whiteSpace=wrap;overflow=hidden;rotatable=0;points=[];portConstraint=eastwest;part=1;" vertex="1" connectable="0" parent="HPCLGDxQR15PkIXR5d-X-213">
          <mxGeometry width="30" height="26" as="geometry" />
        </mxCell>
        <mxCell id="HPCLGDxQR15PkIXR5d-X-215" value="&quot;инфо и пр&quot;" style="shape=partialRectangle;top=0;left=0;right=0;bottom=0;html=1;align=left;verticalAlign=top;fillColor=none;spacingLeft=34;spacingRight=4;whiteSpace=wrap;overflow=hidden;rotatable=0;points=[[0,0.5],[1,0.5]];portConstraint=eastwest;dropTarget=0;" vertex="1" parent="HPCLGDxQR15PkIXR5d-X-212">
          <mxGeometry y="52" width="160" height="28" as="geometry" />
        </mxCell>
        <mxCell id="HPCLGDxQR15PkIXR5d-X-216" value="" style="shape=partialRectangle;top=0;left=0;bottom=0;html=1;fillColor=none;align=left;verticalAlign=top;spacingLeft=4;spacingRight=4;whiteSpace=wrap;overflow=hidden;rotatable=0;points=[];portConstraint=eastwest;part=1;" vertex="1" connectable="0" parent="HPCLGDxQR15PkIXR5d-X-215">
          <mxGeometry width="30" height="28" as="geometry" />
        </mxCell>
        <mxCell id="HPCLGDxQR15PkIXR5d-X-218" style="edgeStyle=orthogonalEdgeStyle;rounded=0;orthogonalLoop=1;jettySize=auto;html=1;exitX=0;exitY=0.5;exitDx=0;exitDy=0;entryX=1;entryY=0.5;entryDx=0;entryDy=0;endArrow=ERmandOne;endFill=0;startArrow=ERzeroToMany;startFill=0;" edge="1" parent="1" source="HPCLGDxQR15PkIXR5d-X-196" target="HPCLGDxQR15PkIXR5d-X-213">
          <mxGeometry relative="1" as="geometry">
            <Array as="points">
              <mxPoint x="1010" y="818" />
              <mxPoint x="1010" y="899" />
            </Array>
          </mxGeometry>
        </mxCell>
        <mxCell id="HPCLGDxQR15PkIXR5d-X-221" style="edgeStyle=orthogonalEdgeStyle;rounded=0;orthogonalLoop=1;jettySize=auto;html=1;exitX=0.5;exitY=1;exitDx=0;exitDy=0;" edge="1" parent="1" source="HPCLGDxQR15PkIXR5d-X-211" target="HPCLGDxQR15PkIXR5d-X-211">
          <mxGeometry relative="1" as="geometry" />
        </mxCell>
        <mxCell id="HPCLGDxQR15PkIXR5d-X-222" value="&lt;b&gt;&lt;i&gt;&lt;font style=&quot;font-size: 17px;&quot;&gt;Задание 2&lt;/font&gt;&lt;/i&gt;&lt;/b&gt;" style="text;strokeColor=none;align=center;fillColor=none;html=1;verticalAlign=middle;whiteSpace=wrap;rounded=0;" vertex="1" parent="1">
          <mxGeometry x="260" y="1060" width="120" height="30" as="geometry" />
        </mxCell>
        <mxCell id="HPCLGDxQR15PkIXR5d-X-223" value="&lt;b&gt;&lt;i&gt;&lt;font style=&quot;font-size: 17px;&quot;&gt;Задание 1&lt;/font&gt;&lt;/i&gt;&lt;/b&gt;" style="text;strokeColor=none;align=center;fillColor=none;html=1;verticalAlign=middle;whiteSpace=wrap;rounded=0;" vertex="1" parent="1">
          <mxGeometry x="290" y="530" width="120" height="30" as="geometry" />
        </mxCell>
      </root>
    </mxGraphModel>
  </diagram>
</mxfile>
